<?xml version="1.0" standalone="no"?>
<!DOCTYPE svg PUBLIC "-//W3C//DTD SVG 20010904//EN"
 "http://www.w3.org/TR/2001/REC-SVG-20010904/DTD/svg10.dtd">
<svg version="1.0" xmlns="http://www.w3.org/2000/svg"
 width="224.000000pt" height="224.000000pt" viewBox="0 0 224.000000 224.000000"
 preserveAspectRatio="xMidYMid meet">

<g transform="translate(0.000000,224.000000) scale(0.100000,-0.100000)"
fill="#000000" stroke="none">
<path d="M1570 1646 c-68 -15 -112 -38 -139 -72 -22 -28 -27 -69 -11 -94 8
-12 13 -11 33 8 89 83 366 83 449 0 24 -24 38 -15 38 26 0 106 -188 173 -370
132z"/>
<path d="M1952 1474 c-4 -23 -58 -68 -107 -90 -27 -12 -99 -32 -159 -44 -60
-11 -125 -28 -145 -36 -88 -37 -141 -108 -140 -189 2 -155 143 -235 360 -206
89 11 162 33 187 55 9 9 12 71 9 267 -1 139 -3 249 -5 243z m-102 -319 c0
-133 5 -127 -109 -144 -104 -16 -186 3 -211 48 -15 29 -12 88 5 115 21 32 50
42 179 65 59 11 111 22 114 25 17 18 22 -6 22 -109z"/>
<path d="M306 1199 c-25 -19 -27 -27 -25 -83 1 -33 -1 -70 -5 -81 -13 -38 15
-58 88 -63 61 -4 66 -6 66 -27 0 -13 -7 -26 -16 -29 -40 -15 -107 -1 -126 28
-4 6 -8 -1 -8 -16 0 -42 37 -62 107 -56 64 6 93 30 93 78 0 39 -28 60 -82 60
-59 0 -78 8 -78 31 0 16 4 17 30 8 36 -13 95 4 110 31 6 10 10 43 10 73 0 53
-1 55 -31 61 -60 12 -106 7 -133 -15z m114 -59 c0 -33 -4 -42 -24 -51 -36 -17
-66 3 -66 45 0 42 5 46 52 46 38 0 38 0 38 -40z"/>
<path d="M533 1213 l-33 -4 0 -114 c0 -94 3 -114 16 -119 29 -11 34 4 34 100
0 105 7 117 61 97 27 -10 29 -9 29 12 0 33 -20 39 -107 28z"/>
<path d="M667 1213 c-11 -10 -8 -157 4 -191 16 -47 75 -63 152 -41 l38 10 -3
112 c-3 108 -4 112 -25 115 -23 3 -23 1 -23 -96 0 -99 0 -100 -26 -106 -56
-14 -64 -3 -64 93 0 85 -8 111 -35 111 -7 0 -15 -3 -18 -7z"/>
<path d="M920 1211 l-25 -7 -3 -166 c-2 -145 0 -166 14 -172 27 -10 34 3 34
64 l0 60 27 -11 c37 -14 79 -2 103 28 15 20 20 41 20 89 0 34 -3 70 -6 79 -14
37 -96 55 -164 36z m108 -43 c18 -18 15 -123 -4 -142 -19 -20 -34 -20 -62 0
-19 13 -22 24 -22 78 0 34 3 66 7 69 11 12 68 8 81 -5z"/>
<path d="M1170 1213 c-41 -15 -50 -35 -50 -110 0 -41 5 -83 10 -93 13 -24 82
-43 123 -35 59 13 77 40 77 116 0 37 -3 75 -6 84 -14 34 -103 57 -154 38z m99
-47 c7 -9 11 -39 9 -77 -3 -59 -5 -64 -30 -73 -18 -7 -35 -6 -53 2 -23 11 -25
16 -25 81 0 46 4 71 13 74 25 11 75 6 86 -7z"/>
<path d="M1489 775 c-1 0 -3 -11 -4 -25 -2 -14 -11 -47 -20 -73 -17 -51 -12
-74 9 -44 16 21 42 22 54 1 5 -9 14 -15 19 -13 15 6 -20 107 -43 125 -19 14
-19 14 0 12 10 -2 21 2 23 7 2 8 -24 15 -38 10z m31 -97 c0 -5 -7 -8 -15 -8
-15 0 -20 21 -8 33 7 7 23 -11 23 -25z"/>
<path d="M284 737 c-4 -11 1 -26 11 -37 18 -20 17 -21 -5 -45 -21 -22 -21 -25
-6 -31 12 -5 28 3 49 25 l32 31 -37 37 c-32 32 -38 34 -44 20z"/>
<path d="M507 744 c-4 -4 -7 -34 -7 -66 l0 -58 40 0 c22 0 40 5 40 10 0 6 -11
10 -25 10 -16 0 -25 6 -25 15 0 8 9 15 19 15 11 0 23 5 26 10 4 6 -5 10 -19
10 -19 0 -26 5 -26 20 0 13 6 19 18 17 9 -1 19 3 22 8 6 11 -52 20 -63 9z"/>
<path d="M648 744 c-5 -4 -8 -34 -8 -66 l0 -58 39 0 c23 0 46 7 55 16 20 19
21 78 2 93 -18 15 -79 25 -88 15z m66 -30 c9 -8 16 -20 16 -25 0 -23 -22 -49
-40 -49 -17 0 -20 7 -20 45 0 49 15 59 44 29z"/>
<path d="M813 735 c-9 -24 4 -97 19 -106 7 -5 25 -9 41 -9 32 0 50 34 45 87
-4 50 -22 40 -28 -14 -4 -40 -8 -48 -25 -48 -17 0 -20 8 -23 53 -3 50 -16 68
-29 37z"/>
<path d="M1020 743 c-39 -14 -54 -78 -24 -107 17 -18 84 -22 84 -6 0 6 -14 10
-30 10 -42 0 -62 40 -35 70 10 11 27 19 36 18 10 -2 19 2 21 7 3 11 -29 17
-52 8z"/>
<path d="M1153 688 c-13 -40 -17 -64 -11 -67 6 -2 15 4 20 13 12 21 38 20 54
-1 23 -32 26 -5 7 54 -27 79 -44 79 -70 1z m47 -10 c0 -5 -7 -8 -15 -8 -17 0
-18 2 -9 25 5 13 8 14 15 3 5 -7 9 -16 9 -20z"/>
<path d="M1315 725 c-33 -32 -31 -58 5 -97 23 -23 27 -34 18 -40 -9 -5 -6 -8
10 -8 19 0 22 4 17 20 -5 14 -2 20 9 20 9 0 16 5 16 10 0 6 -10 10 -23 10 -29
0 -47 18 -47 47 0 24 33 48 56 39 8 -3 14 1 14 9 0 24 -48 18 -75 -10z"/>
<path d="M1630 730 c-24 -24 -26 -72 -4 -94 21 -22 67 -20 87 2 35 38 6 112
-43 112 -11 0 -29 -9 -40 -20z m59 -14 c7 -8 11 -27 9 -43 -2 -22 -8 -28 -28
-28 -21 0 -26 5 -28 34 -5 45 23 66 47 37z"/>
<path d="M1900 715 l-34 -35 31 -32 c21 -21 37 -29 49 -24 15 6 15 9 -6 31
l-23 25 22 23 c18 20 19 26 8 35 -11 9 -21 4 -47 -23z"/>
</g>
</svg>
